<svg width="200" height="40" viewBox="0 0 200 40" fill="none" xmlns="http://www.w3.org/2000/svg">
<path d="M33.9359 30.4896C32.9657 32.4509 31.6602 34.1631 30.0332 35.6143C28.3349 37.1308 26.4024 38.2696 24.2358 39.021C22.847 39.5014 21.4303 39.8158 19.9721 39.9384C18.1586 40.0926 16.367 39.9581 14.5933 39.5271C13.0536 39.1534 11.6013 38.5801 10.1966 37.8544C8.97638 37.2237 7.88316 36.4289 6.84152 35.5511C6.51018 35.2703 6.17289 34.9955 5.85941 34.693C3.92296 32.8266 2.44682 30.6339 1.429 28.1605C0.605609 26.1576 0.143322 24.0599 0.0282461 21.8811C-0.108654 19.3088 0.252445 16.8176 1.10361 14.3976C1.93692 12.023 3.15712 9.85607 4.76619 7.91452C6.48638 5.84049 8.49822 4.11049 10.8513 2.77394C12.9723 1.56985 15.2341 0.749338 17.6229 0.272846C18.2062 0.156195 18.7995 0.0830401 19.4165 0L16.7023 5.01207C16.6726 5.02195 16.6408 5.03381 16.6071 5.04172C14.3095 5.71 12.2064 6.75393 10.3236 8.2447C7.77602 10.2614 5.92489 12.7724 4.79397 15.8112C4.3039 17.13 4.00233 18.4863 3.87535 19.8901C3.73051 21.5094 3.85154 23.0931 4.2047 24.6768C4.50628 26.0291 5.00031 27.2945 5.62529 28.5263C6.41892 30.0882 7.48039 31.4445 8.73829 32.6427C10.6886 34.5012 12.9802 35.7903 15.6032 36.4349C18.5971 37.1703 21.5276 36.9133 24.3787 35.731C25.8707 35.1121 27.2099 34.2659 28.4103 33.1904C30.7594 31.0827 32.2475 28.4847 32.8129 25.3925C33.1205 23.706 33.049 22.0155 32.6264 20.3369C32.1741 18.5338 31.3566 16.9303 30.2376 15.4494C29.0115 13.8262 27.4242 12.6715 25.6187 11.8115C23.839 10.9633 21.9323 10.5758 19.9602 10.7478C16.7202 11.0305 14.0139 12.4105 11.9406 14.9235C9.9823 17.2961 9.13907 20.0245 9.55175 23.0911C9.81762 25.0603 10.645 26.7884 11.9068 28.3246C13.0318 29.6928 14.4683 30.6359 16.0952 31.2429C18.6626 32.1998 21.2399 32.0752 23.6485 30.7624C26.3052 29.3132 27.9976 27.0948 28.4301 24.0401C28.7595 21.7071 28.1067 19.6331 26.6722 17.7884C25.8191 16.6911 24.7477 15.8547 23.468 15.313C22.093 14.7317 20.6665 14.5558 19.1765 14.8326C17.5198 15.141 16.1071 15.8745 14.9544 17.0865C13.9048 18.1897 13.252 19.5065 13.0576 21.023C12.8552 22.6087 13.2024 24.0599 14.0298 25.4558C14.2004 25.7424 14.2778 25.8789 15.4643 27.336C14.7937 26.7804 14.3254 26.2466 13.9127 25.6337C13.3433 24.7855 12.8711 23.5597 12.7659 22.5217C12.6211 21.0962 12.8969 19.7636 13.5358 18.4982C14.6766 16.2383 16.5615 14.9116 18.984 14.3383C20.474 13.9844 21.9561 14.0931 23.4164 14.6269C24.6743 15.0876 25.7635 15.7836 26.6961 16.7168C28.2139 18.2372 29.1186 20.0839 29.3368 22.2172C29.5849 24.6511 28.9182 26.8635 27.456 28.8228C25.8687 30.9483 23.7676 32.3204 21.1625 32.8523C19.0594 33.2813 17.0039 33.0599 15.0119 32.2176C12.2541 31.055 10.262 29.0957 8.9486 26.4542C8.3256 25.2007 7.97641 23.8444 7.87324 22.4367C7.55777 18.2036 9.17875 14.7792 12.2699 11.9736C13.7738 10.6094 15.5337 9.68406 17.4781 9.13837C18.9959 8.71131 20.5534 8.55907 22.1406 8.69747C24.583 8.911 26.8151 9.70186 28.8388 11.0582C30.9241 12.456 32.5927 14.2592 33.7811 16.4696C34.8406 18.4408 35.4537 20.5623 35.5708 22.7965C35.7097 25.4953 35.1422 28.0636 33.9399 30.4915L33.9359 30.4896Z" fill="url(#paint0_linear_343_136)"/>
<path d="M67.7955 32.769C66.6581 34.1472 65.0294 34.8862 63.1277 34.8862C60.5595 34.8862 58.7557 33.95 56.0874 31.1437C51.3445 30.552 48.0098 26.9841 48.0098 22.3054C48.0098 17.1846 52.011 13.3945 57.4704 13.3945C62.9298 13.3945 66.9311 17.162 66.9311 22.3054C66.9311 26.3426 64.4357 29.5433 60.7552 30.7243C61.5945 31.6106 62.3361 31.9303 63.2005 31.9303C64.2628 31.9303 65.2023 31.5109 66.0166 30.6495L67.7955 32.7667V32.769ZM57.4704 27.8205C60.5572 27.8205 62.8798 25.5809 62.8798 22.3054C62.8798 19.0298 60.5572 16.7902 57.4704 16.7902C54.3836 16.7902 52.0611 19.0298 52.0611 22.3054C52.0611 25.5809 54.3836 27.8205 57.4704 27.8205ZM83.0613 17.6788V30.9238H79.4058V29.3484C78.3935 30.5044 76.9104 31.121 75.2794 31.121C71.9446 31.121 69.5971 29.2509 69.5971 25.1638V17.6811H73.4505V24.5994C73.4505 26.8141 74.4377 27.8001 76.1438 27.8001C77.8498 27.8001 79.2079 26.6667 79.2079 24.2299V17.6811H83.0613V17.6788ZM99.5873 25.3837H89.5329C89.9037 27.0339 91.3118 28.0427 93.3363 28.0427C94.7444 28.0427 95.7566 27.6233 96.6711 26.7619L98.7206 28.9766C97.4854 30.3798 95.6338 31.1187 93.2362 31.1187C88.6412 31.1187 85.6522 28.2376 85.6522 24.3002C85.6522 20.3627 88.6913 17.4816 92.7426 17.4816C96.7939 17.4816 99.6601 20.0907 99.6601 24.35C99.6601 24.6447 99.61 25.0641 99.585 25.3837H99.5873ZM89.4829 23.1441H96.0296C95.7589 21.4712 94.4987 20.3876 92.7699 20.3876C91.0411 20.3876 89.7559 21.4462 89.4852 23.1441H89.4829ZM100.945 29.6929L102.231 26.9365C103.416 27.7004 105.22 28.2172 106.851 28.2172C108.629 28.2172 109.296 27.7503 109.296 27.0113C109.296 24.8442 101.268 27.0611 101.268 21.7681C101.268 19.2565 103.541 17.4839 107.419 17.4839C109.248 17.4839 111.273 17.9032 112.533 18.6399L111.248 21.3714C109.937 20.6325 108.629 20.3876 107.419 20.3876C105.69 20.3876 104.949 20.9294 104.949 21.6185C104.949 23.8831 112.976 21.6933 112.976 26.9115C112.976 29.3733 110.679 31.121 106.703 31.121C104.455 31.121 102.183 30.5067 100.948 29.6929H100.945ZM123.918 30.2823C123.129 30.849 121.966 31.1187 120.781 31.1187C117.644 31.1187 115.815 29.5184 115.815 26.3675V20.9271H113.766V17.9735H115.815V14.7478H119.669V17.9735H122.978V20.9271H119.669V26.3176C119.669 27.451 120.285 28.0653 121.325 28.0653C121.893 28.0653 122.462 27.8931 122.881 27.5734L123.918 30.28V30.2823ZM142.1 30.9238L142.075 20.5849L136.986 29.1013H135.182L130.119 20.8047V30.9215H126.363V13.6892H129.673L136.145 24.3976L142.519 13.6892H145.803L145.853 30.9215H142.098L142.1 30.9238ZM162.625 25.3837H152.571C152.941 27.0339 154.349 28.0427 156.374 28.0427C157.782 28.0427 158.794 27.6233 159.709 26.7619L161.758 28.9766C160.523 30.3798 158.671 31.1187 156.274 31.1187C151.679 31.1187 148.69 28.2376 148.69 24.3002C148.69 20.3627 151.729 17.4816 155.78 17.4816C159.832 17.4816 162.698 20.0907 162.698 24.35C162.698 24.6447 162.648 25.0641 162.623 25.3837H162.625ZM152.523 23.1441H159.07C158.799 21.4712 157.539 20.3876 155.81 20.3876C154.081 20.3876 152.796 21.4462 152.525 23.1441H152.523ZM165.391 23.3413V13.6915H169.392V23.194C169.392 26.4672 170.825 27.8228 173.246 27.8228C175.666 27.8228 177.099 26.4695 177.099 23.194V13.6915H181.053V23.3413C181.053 28.4122 178.139 31.2185 173.223 31.2185C168.307 31.2185 165.393 28.4122 165.393 23.3413H165.391ZM199.999 19.9434C199.999 23.7833 197.108 26.1726 192.49 26.1726H189.007V30.9238H185.006V13.6915H192.49C197.11 13.6915 199.999 16.0784 199.999 19.9434ZM195.948 19.9434C195.948 18.0483 194.713 16.9398 192.267 16.9398H189.007V22.9219H192.267C194.713 22.9219 195.948 21.8135 195.948 19.9434Z" fill="url(#paint1_linear_343_136)"/>
<defs>
<linearGradient id="paint0_linear_343_136" x1="0" y1="20" x2="35.5913" y2="20" gradientUnits="userSpaceOnUse">
<stop stop-color="#31CA85"/>
<stop offset="1" stop-color="#1531B0"/>
</linearGradient>
<linearGradient id="paint1_linear_343_136" x1="48.0098" y1="24.1404" x2="199.999" y2="24.1404" gradientUnits="userSpaceOnUse">
<stop stop-color="#31CA85"/>
<stop offset="1" stop-color="#1531B0"/>
</linearGradient>
</defs>
</svg>
