<svg width="200" height="46" viewBox="0 0 200 46" fill="none" xmlns="http://www.w3.org/2000/svg">
<g clip-path="url(#clip0_216_73)">
<path d="M33.9353 30.4896C32.9651 32.4509 31.6596 34.1631 30.0326 35.6143C28.3343 37.1308 26.4018 38.2696 24.2352 39.021C22.8464 39.5014 21.4297 39.8158 19.9715 39.9384C18.158 40.0926 16.3664 39.9581 14.5927 39.5271C13.053 39.1534 11.6007 38.5801 10.196 37.8544C8.97577 37.2237 7.88255 36.4289 6.84091 35.5511C6.50957 35.2703 6.17228 34.9955 5.8588 34.693C3.92235 32.8266 2.44621 30.6339 1.42839 28.1605C0.604998 26.1576 0.142712 24.0599 0.0276358 21.8811C-0.109265 19.3088 0.251835 16.8176 1.103 14.3976C1.93631 12.023 3.15651 9.85607 4.76558 7.91452C6.48577 5.84049 8.49761 4.11049 10.8507 2.77394C12.9717 1.56985 15.2335 0.749338 17.6223 0.272846C18.2056 0.156195 18.7989 0.0830401 19.4159 0L16.7017 5.01207C16.672 5.02195 16.6402 5.03381 16.6065 5.04172C14.3089 5.71 12.2058 6.75393 10.3229 8.2447C7.77541 10.2614 5.92428 12.7724 4.79336 15.8112C4.30329 17.13 4.00172 18.4863 3.87474 19.8901C3.7299 21.5094 3.85093 23.0931 4.20409 24.6768C4.50567 26.0291 4.9997 27.2945 5.62468 28.5263C6.41831 30.0882 7.47978 31.4445 8.73768 32.6427C10.688 34.5012 12.9796 35.7903 15.6025 36.4349C18.5965 37.1703 21.527 36.9133 24.3781 35.731C25.8701 35.1121 27.2093 34.2659 28.4097 33.1904C30.7588 31.0827 32.2469 28.4847 32.8123 25.3925C33.1198 23.706 33.0484 22.0155 32.6258 20.3369C32.1734 18.5338 31.356 16.9303 30.237 15.4494C29.0108 13.8262 27.4236 12.6715 25.6181 11.8115C23.8384 10.9633 21.9317 10.5758 19.9595 10.7478C16.7196 11.0305 14.0133 12.4105 11.94 14.9235C9.98169 17.2961 9.13846 20.0245 9.55114 23.0911C9.81701 25.0603 10.6444 26.7884 11.9062 28.3246C13.0312 29.6928 14.4677 30.6359 16.0946 31.2429C18.662 32.1998 21.2393 32.0752 23.6479 30.7624C26.3046 29.3132 27.997 27.0948 28.4295 24.0401C28.7589 21.7071 28.1061 19.6331 26.6716 17.7884C25.8185 16.6911 24.7471 15.8547 23.4674 15.313C22.0924 14.7317 20.6659 14.5558 19.1758 14.8326C17.5191 15.141 16.1065 15.8745 14.9538 17.0865C13.9042 18.1897 13.2514 19.5065 13.057 21.023C12.8546 22.6087 13.2018 24.0599 14.0292 25.4558C14.1998 25.7424 14.2772 25.8789 15.4637 27.336C14.793 26.7804 14.3248 26.2466 13.9121 25.6337C13.3427 24.7855 12.8705 23.5597 12.7653 22.5217C12.6205 21.0962 12.8963 19.7636 13.5351 18.4982C14.676 16.2383 16.5608 14.9116 18.9834 14.3383C20.4734 13.9844 21.9555 14.0931 23.4158 14.6269C24.6737 15.0876 25.7629 15.7836 26.6954 16.7168C28.2133 18.2372 29.118 20.0839 29.3362 22.2172C29.5842 24.6511 28.9176 26.8635 27.4553 28.8228C25.8681 30.9483 23.767 32.3204 21.1619 32.8523C19.0588 33.2813 17.0033 33.0599 15.0113 32.2176C12.2534 31.055 10.2614 29.0957 8.94799 26.4542C8.32499 25.2007 7.9758 23.8444 7.87263 22.4367C7.55716 18.2036 9.17814 14.7792 12.2693 11.9736C13.7732 10.6094 15.5331 9.68406 17.4775 9.13837C18.9953 8.71131 20.5528 8.55907 22.14 8.69747C24.5824 8.911 26.8145 9.70186 28.8382 11.0582C30.9235 12.456 32.5921 14.2592 33.7805 16.4696C34.84 18.4408 35.4531 20.5623 35.5702 22.7965C35.709 25.4953 35.1416 28.0636 33.9393 30.4916L33.9353 30.4896Z" fill="#162AD8"/>
<path d="M67.7965 35.768C66.6591 37.1462 65.0304 37.8852 63.1287 37.8852C60.5605 37.8852 58.7566 36.949 56.0884 34.1427C51.3455 33.5511 48.0107 29.9831 48.0107 25.3044C48.0107 20.1837 52.012 16.3936 57.4714 16.3936C62.9308 16.3936 66.9321 20.161 66.9321 25.3044C66.9321 29.3416 64.4367 32.5423 60.7561 33.7233C61.5955 34.6097 62.3371 34.9293 63.2015 34.9293C64.2638 34.9293 65.2033 34.5099 66.0176 33.6485L67.7965 35.7657V35.768ZM57.4714 30.8195C60.5582 30.8195 62.8807 28.5799 62.8807 25.3044C62.8807 22.0288 60.5582 19.7892 57.4714 19.7892C54.3846 19.7892 52.0621 22.0288 52.0621 25.3044C52.0621 28.5799 54.3846 30.8195 57.4714 30.8195ZM83.0623 20.6778V33.9228H79.4067V32.3474C78.3945 33.5035 76.9114 34.12 75.2804 34.12C71.9456 34.12 69.5981 32.2499 69.5981 28.1628V20.6801H73.4515V27.5984C73.4515 29.8131 74.4387 30.7991 76.1448 30.7991C77.8508 30.7991 79.2088 29.6657 79.2088 27.2289V20.6801H83.0623V20.6778ZM99.5883 28.3827H89.5339C89.9047 30.033 91.3128 31.0417 93.3373 31.0417C94.7453 31.0417 95.7576 30.6223 96.6721 29.7609L98.7216 31.9756C97.4864 33.3788 95.6348 34.1178 93.2372 34.1178C88.6422 34.1178 85.6532 31.2366 85.6532 27.2992C85.6532 23.3617 88.6923 20.4806 92.7436 20.4806C96.7949 20.4806 99.6611 23.0897 99.6611 27.3491C99.6611 27.6437 99.611 28.0631 99.586 28.3827H99.5883ZM89.4839 26.1431H96.0306C95.7599 24.4702 94.4997 23.3867 92.7709 23.3867C91.0421 23.3867 89.7568 24.4453 89.4861 26.1431H89.4839ZM100.946 32.6919L102.232 29.9355C103.417 30.6994 105.221 31.2162 106.852 31.2162C108.63 31.2162 109.297 30.7493 109.297 30.0103C109.297 27.8432 101.269 30.0602 101.269 24.7672C101.269 22.2555 103.542 20.4829 107.42 20.4829C109.249 20.4829 111.274 20.9022 112.534 21.639L111.249 24.3705C109.938 23.6315 108.63 23.3867 107.42 23.3867C105.691 23.3867 104.95 23.9284 104.95 24.6175C104.95 26.8821 112.977 24.6924 112.977 29.9106C112.977 32.3723 110.68 34.12 106.704 34.12C104.456 34.12 102.184 33.5057 100.949 32.6919H100.946ZM123.919 33.2813C123.13 33.848 121.967 34.1178 120.782 34.1178C117.645 34.1178 115.816 32.5174 115.816 29.3665V23.9262H113.767V20.9725H115.816V17.7468H119.67V20.9725H122.979V23.9262H119.67V29.3166C119.67 30.4501 120.286 31.0644 121.326 31.0644C121.894 31.0644 122.463 30.8921 122.882 30.5725L123.919 33.279V33.2813ZM142.101 33.9228L142.076 23.5839L136.987 32.1003H135.183L130.12 23.8038V33.9205H126.364V16.6882H129.674L136.146 27.3967L142.52 16.6882H145.804L145.854 33.9205H142.099L142.101 33.9228ZM162.626 28.3827H152.572C152.942 30.033 154.35 31.0417 156.375 31.0417C157.783 31.0417 158.795 30.6223 159.71 29.7609L161.759 31.9756C160.524 33.3788 158.672 34.1178 156.275 34.1178C151.68 34.1178 148.691 31.2366 148.691 27.2992C148.691 23.3617 151.73 20.4806 155.781 20.4806C159.833 20.4806 162.699 23.0897 162.699 27.3491C162.699 27.6437 162.649 28.0631 162.624 28.3827H162.626ZM152.524 26.1431H159.071C158.8 24.4702 157.54 23.3867 155.811 23.3867C154.082 23.3867 152.797 24.4453 152.526 26.1431H152.524ZM165.392 26.3403V16.6905H169.393V26.193C169.393 29.4663 170.826 30.8218 173.247 30.8218C175.667 30.8218 177.1 29.4685 177.1 26.193V16.6905H181.054V26.3403C181.054 31.4112 178.14 34.2175 173.224 34.2175C168.308 34.2175 165.394 31.4112 165.394 26.3403H165.392ZM200 22.9424C200 26.7824 197.109 29.1716 192.491 29.1716H189.008V33.9228H185.007V16.6905H192.491C197.111 16.6905 200 19.0775 200 22.9424ZM195.949 22.9424C195.949 21.0473 194.713 19.9388 192.268 19.9388H189.008V25.921H192.268C194.713 25.921 195.949 24.8125 195.949 22.9424Z" fill="url(#paint0_linear_216_73)"/>
</g>
<defs>
<linearGradient id="paint0_linear_216_73" x1="35.5" y1="27" x2="176.5" y2="27" gradientUnits="userSpaceOnUse">
<stop stop-color="#31CA85"/>
<stop offset="1" stop-color="#193AD0"/>
</linearGradient>
<clipPath id="clip0_216_73">
<rect width="200" height="45.8599" fill="white"/>
</clipPath>
</defs>
</svg>
