<svg width="36" height="41" viewBox="0 0 36 41" fill="none" xmlns="http://www.w3.org/2000/svg">
<path d="M33.9354 30.5535C32.9652 32.5148 31.6597 34.227 30.0328 35.6782C28.3344 37.1947 26.4019 38.3335 24.2353 39.0849C22.8465 39.5653 21.4299 39.8797 19.9716 40.0023C18.1581 40.1565 16.3665 40.022 14.5928 39.591C13.0531 39.2173 11.6008 38.644 10.1961 37.9183C8.97589 37.2876 7.88267 36.4928 6.84103 35.615C6.5097 35.3342 6.17241 35.0594 5.85892 34.7569C3.92248 32.8905 2.44633 30.6978 1.42851 28.2244C0.605121 26.2215 0.142834 24.1238 0.0277578 21.945C-0.109143 19.3727 0.251957 16.8815 1.10312 14.4615C1.93643 12.0869 3.15663 9.91998 4.7657 7.97842C6.48589 5.90439 8.49773 4.17439 10.8508 2.83784C12.9718 1.63376 15.2336 0.813242 17.6224 0.33675C18.2058 0.220098 18.799 0.146944 19.416 0.0639038L16.7018 5.07597C16.6721 5.08586 16.6403 5.09772 16.6066 5.10563C14.3091 5.7739 12.2059 6.81784 10.3231 8.3086C7.77553 10.3253 5.9244 12.8363 4.79348 15.8751C4.30342 17.1939 4.00184 18.5502 3.87486 19.954C3.73002 21.5733 3.85105 23.157 4.20421 24.7407C4.50579 26.093 4.99982 27.3584 5.6248 28.5902C6.41843 30.1521 7.4799 31.5084 8.7378 32.7066C10.6881 34.5651 12.9797 35.8542 15.6027 36.4988C18.5966 37.2343 21.5271 36.9772 24.3782 35.7949C25.8702 35.176 27.2094 34.3298 28.4098 33.2543C30.7589 31.1466 32.247 28.5486 32.8124 25.4564C33.12 23.7699 33.0485 22.0794 32.6259 20.4008C32.1736 18.5977 31.3561 16.9942 30.2371 15.5133C29.011 13.8901 27.4237 12.7354 25.6182 11.8754C23.8385 11.0272 21.9318 10.6397 19.9597 10.8117C16.7197 11.0944 14.0134 12.4745 11.9401 14.9874C9.98181 17.36 9.13858 20.0884 9.55127 23.155C9.81713 25.1242 10.6445 26.8523 11.9064 28.3885C13.0313 29.7567 14.4678 30.6998 16.0947 31.3068C18.6621 32.2637 21.2394 32.1391 23.648 30.8263C26.3047 29.3771 27.9971 27.1587 28.4296 24.104C28.759 21.771 28.1062 19.697 26.6718 17.8523C25.8186 16.755 24.7472 15.9186 23.4675 15.3769C22.0925 14.7956 20.666 14.6197 19.176 14.8965C17.5193 15.2049 16.1066 15.9384 14.9539 17.1504C13.9043 18.2536 13.2515 19.5704 13.0571 21.0869C12.8547 22.6726 13.2019 24.1238 14.0293 25.5197C14.1999 25.8063 14.2773 25.9428 15.4638 27.3999C14.7932 26.8443 14.3249 26.3105 13.9122 25.6976C13.3428 24.8494 12.8706 23.6236 12.7654 22.5856C12.6206 21.1601 12.8964 19.8275 13.5353 18.5621C14.6761 16.3022 16.561 14.9755 18.9835 14.4022C20.4735 14.0483 21.9556 14.157 23.4159 14.6908C24.6738 15.1515 25.7631 15.8475 26.6956 16.7807C28.2134 18.3011 29.1181 20.1478 29.3364 22.2811C29.5844 24.715 28.9177 26.9274 27.4555 28.8867C25.8682 31.0122 23.7671 32.3843 21.162 32.9162C19.0589 33.3452 17.0034 33.1238 15.0114 32.2815C12.2536 31.1189 10.2616 29.1596 8.94811 26.5181C8.32511 25.2646 7.97592 23.9083 7.87275 22.5006C7.55728 18.2675 9.17826 14.8431 12.2694 12.0375C13.7734 10.6733 15.5332 9.74797 17.4776 9.20227C18.9954 8.77521 20.5529 8.62297 22.1402 8.76137C24.5825 8.9749 26.8146 9.76576 28.8384 11.1221C30.9236 12.5199 32.5922 14.3231 33.7807 16.5335C34.8401 18.5047 35.4532 20.6262 35.5703 22.8604C35.7092 25.5592 35.1417 28.1275 33.9394 30.5555L33.9354 30.5535Z" fill="url(#paint0_linear_162_1029)"/>
<defs>
<linearGradient id="paint0_linear_162_1029" x1="-0.000488281" y1="20.0639" x2="35.5908" y2="20.0639" gradientUnits="userSpaceOnUse">
<stop stop-color="#31CA85"/>
<stop offset="1" stop-color="#193AD0"/>
</linearGradient>
</defs>
</svg>
