<svg width="26" height="27" viewBox="0 0 26 27" fill="none" xmlns="http://www.w3.org/2000/svg">
<path d="M24.1129 20.4071C23.4485 21.6714 22.5545 22.7751 21.4404 23.7105C20.2774 24.688 18.9541 25.4221 17.4704 25.9064C16.5193 26.2161 15.5492 26.4188 14.5506 26.4978C13.3088 26.5972 12.0819 26.5105 10.8673 26.2327C9.81298 25.9918 8.81844 25.6222 7.85651 25.1545C7.02093 24.7479 6.27231 24.2356 5.55901 23.6697C5.33211 23.4888 5.10114 23.3116 4.88647 23.1166C3.56042 21.9135 2.54957 20.5002 1.85258 18.9058C1.28874 17.6148 0.972168 16.2626 0.893366 14.8581C0.799618 13.2 1.04689 11.5942 1.62976 10.0343C2.2004 8.50362 3.03598 7.10681 4.13785 5.85528C5.31581 4.51837 6.69349 3.40321 8.30486 2.54167C9.75727 1.76553 11.3061 1.23662 12.942 0.929477C13.3414 0.854284 13.7477 0.807129 14.1702 0.753601L12.3116 3.98437C12.2912 3.99074 12.2694 3.99839 12.2463 4.00349C10.673 4.43425 9.23283 5.10717 7.94346 6.06812C6.19894 7.36807 4.93131 8.98664 4.15687 10.9455C3.82128 11.7956 3.61476 12.6698 3.52781 13.5747C3.42863 14.6185 3.51151 15.6393 3.75335 16.6602C3.95986 17.5319 4.29817 18.3476 4.72615 19.1416C5.26961 20.1484 5.9965 21.0227 6.85789 21.795C8.19345 22.993 9.76271 23.824 11.5589 24.2394C13.6091 24.7135 15.6158 24.5479 17.5682 23.7857C18.5899 23.3868 19.507 22.8413 20.329 22.148C21.9377 20.7895 22.9567 19.1148 23.3439 17.1215C23.5545 16.0344 23.5056 14.9448 23.2162 13.8627C22.9064 12.7004 22.3466 11.6668 21.5803 10.7123C20.7407 9.66593 19.6538 8.92164 18.4174 8.36725C17.1987 7.82051 15.893 7.57071 14.5425 7.68159C12.3238 7.86384 10.4706 8.75342 9.05077 10.3733C7.70977 11.9026 7.13234 13.6614 7.41494 15.6381C7.597 16.9074 8.16356 18.0213 9.02767 19.0116C9.79803 19.8935 10.7817 20.5014 11.8958 20.8927C13.6539 21.5095 15.4188 21.4292 17.0682 20.583C18.8875 19.6488 20.0464 18.2189 20.3426 16.2498C20.5681 14.7459 20.1211 13.409 19.1388 12.22C18.5546 11.5126 17.8209 10.9735 16.9446 10.6243C16.003 10.2496 15.0262 10.1362 14.0058 10.3146C12.8713 10.5135 11.904 10.9863 11.1146 11.7675C10.3958 12.4787 9.94884 13.3275 9.8157 14.305C9.67711 15.3271 9.91488 16.2626 10.4814 17.1623C10.5983 17.3471 10.6513 17.4351 11.4638 18.3743C11.0045 18.0162 10.6839 17.6721 10.4013 17.277C10.0113 16.7303 9.68798 15.9401 9.61597 15.271C9.51679 14.3521 9.70564 13.4931 10.1431 12.6775C10.9244 11.2208 12.2151 10.3656 13.874 9.99602C14.8944 9.76789 15.9093 9.83799 16.9093 10.1821C17.7707 10.479 18.5166 10.9277 19.1551 11.5292C20.1945 12.5093 20.8141 13.6996 20.9635 15.0748C21.1333 16.6436 20.6768 18.0698 19.6755 19.3327C18.5886 20.7028 17.1498 21.5873 15.3658 21.9301C13.9256 22.2067 12.5181 22.0639 11.154 21.521C9.26544 20.7716 7.90134 19.5086 7.00191 17.8059C6.57529 16.9979 6.33616 16.1236 6.26551 15.2162C6.04949 12.4876 7.15951 10.2802 9.27631 8.47176C10.3062 7.59238 11.5113 6.99593 12.8428 6.64418C13.8822 6.36889 14.9487 6.27076 16.0356 6.35997C17.7082 6.49761 19.2367 7.0074 20.6225 7.88168C22.0504 8.78273 23.1931 9.94504 24.0069 11.3699C24.7324 12.6405 25.1523 14.008 25.2324 15.4482C25.3275 17.1878 24.939 18.8434 24.1156 20.4084L24.1129 20.4071Z" fill="#162AD8"/>
</svg>
