<svg width="24" height="26" viewBox="0 0 24 26" fill="none" xmlns="http://www.w3.org/2000/svg">
<path d="M22.8837 19.9315C22.2295 21.1765 21.3491 22.2633 20.2521 23.1845C19.1068 24.147 17.8037 24.8699 16.3427 25.3468C15.4062 25.6518 14.4509 25.8513 13.4676 25.9291C12.2448 26.027 11.0366 25.9417 9.84055 25.6681C8.80234 25.4309 7.823 25.0669 6.87577 24.6064C6.05296 24.206 5.31578 23.7015 4.61339 23.1443C4.38996 22.9661 4.16252 22.7916 3.95113 22.5996C2.64534 21.4149 1.64994 20.0231 0.963603 18.4532C0.408375 17.1819 0.096645 15.8503 0.019047 14.4673C-0.073268 12.8346 0.170229 11.2533 0.744187 9.71719C1.3061 8.20995 2.12891 6.83448 3.21395 5.60208C4.3739 4.2856 5.73053 3.18749 7.31728 2.33912C8.74749 1.57483 10.2727 1.05401 11.8835 0.751557C12.2769 0.677513 12.6769 0.631079 13.093 0.578369L11.2627 3.75976C11.2427 3.76604 11.2213 3.77357 11.1985 3.77859C9.64923 4.20277 8.23106 4.86541 6.9614 5.81167C5.24354 7.09175 3.99528 8.68559 3.23268 10.6145C2.90222 11.4516 2.69886 12.3125 2.61323 13.2035C2.51556 14.2314 2.59718 15.2366 2.83532 16.2419C3.03868 17.1003 3.37182 17.9035 3.79326 18.6853C4.32841 19.6768 5.04419 20.5377 5.89242 21.2982C7.20757 22.4779 8.75284 23.2962 10.5215 23.7053C12.5404 24.1721 14.5165 24.009 16.4391 23.2585C17.4452 22.8657 18.3482 22.3286 19.1577 21.6458C20.7417 20.308 21.7452 18.659 22.1265 16.6962C22.3338 15.6257 22.2857 14.5527 22.0007 13.4872C21.6957 12.3426 21.1444 11.3248 20.3899 10.3848C19.5631 9.3545 18.4927 8.62158 17.2752 8.07566C16.0752 7.53727 14.7894 7.2913 13.4596 7.40048C11.2748 7.57994 9.44989 8.45593 8.05178 10.051C6.73128 11.557 6.16267 13.2889 6.44095 15.2354C6.62023 16.4853 7.17814 17.5822 8.02904 18.5573C8.78763 19.4258 9.75627 20.0244 10.8533 20.4097C12.5846 21.0171 14.3225 20.938 15.9467 20.1047C17.7382 19.1848 18.8794 17.7767 19.171 15.8378C19.3931 14.3569 18.953 13.0404 17.9857 11.8695C17.4104 11.173 16.6879 10.6421 15.825 10.2982C14.8978 9.92928 13.9359 9.81759 12.9311 9.99328C11.814 10.1891 10.8614 10.6547 10.0841 11.424C9.3763 12.1243 8.93613 12.9601 8.80502 13.9227C8.66855 14.9292 8.90269 15.8503 9.46059 16.7363C9.57565 16.9183 9.62783 17.0049 10.4279 17.9298C9.97568 17.5772 9.65994 17.2383 9.38165 16.8493C8.99768 16.3109 8.67926 15.5328 8.60835 14.8739C8.51068 13.9691 8.69665 13.1232 9.12745 12.32C9.89674 10.8856 11.1677 10.0435 12.8013 9.67954C13.8061 9.45489 14.8055 9.52392 15.7902 9.86277C16.6384 10.1552 17.3729 10.5969 18.0017 11.1893C19.0252 12.1544 19.6353 13.3265 19.7825 14.6807C19.9497 16.2256 19.5002 17.6299 18.5141 18.8736C17.4438 20.2227 16.027 21.0936 14.2703 21.4312C12.8522 21.7036 11.4661 21.563 10.1228 21.0284C8.26317 20.2905 6.91992 19.0468 6.03423 17.3701C5.61413 16.5744 5.37866 15.7135 5.30909 14.82C5.09637 12.133 6.18943 9.9594 8.27387 8.17857C9.288 7.31263 10.4747 6.7253 11.7859 6.37892C12.8093 6.10784 13.8596 6.01121 14.9299 6.09906C16.5769 6.2346 18.082 6.73659 19.4467 7.59751C20.8528 8.48479 21.978 9.62934 22.7794 11.0324C23.4938 12.2836 23.9072 13.6302 23.9861 15.0484C24.0798 16.7614 23.6972 18.3917 22.8864 19.9328L22.8837 19.9315Z" fill="#30BF8B"/>
</svg>
